<svg width="16800" height="5601" viewBox="0 0 16800 5601" fill="none" xmlns="http://www.w3.org/2000/svg">
<path d="M13700 3050.9C17003.5 1548.92 17325.5 3778.42 13700 5099.92" stroke="#99EC4E" stroke-width="1000"/>
<path d="M13700 1000.97C17003.5 -501 17325.5 1728.5 13700 3050" stroke="#99EC4E" stroke-width="1000"/>
<rect x="13200.5" y="1000.5" width="999" height="4099" fill="#99EC4E" stroke="#99EC4E"/>
<circle cx="13700" cy="5100" r="499.5" fill="#99EC4E" stroke="#99EC4E"/>
<circle cx="13700" cy="3049" r="499.5" fill="#99EC4E" stroke="#99EC4E"/>
<circle cx="13700" cy="1000" r="499.5" fill="#99EC4E" stroke="#99EC4E"/>
<rect x="9279.52" y="3224.58" width="999" height="3163.01" transform="rotate(-45.5 9279.52 3224.58)" fill="#99EC4E" stroke="#99EC4E"/>
<circle cx="11900" cy="5100" r="499.5" fill="#99EC4E" stroke="#99EC4E"/>
<path d="M9279 500.008C12773.7 494.916 12773.7 3055.08 9279 3049.99" stroke="#99EC4E" stroke-width="1000"/>
<rect x="8800.5" y="500.5" width="999" height="4099" fill="#99EC4E" stroke="#99EC4E"/>
<circle cx="9300" cy="4600" r="499.5" fill="#99EC4E" stroke="#99EC4E"/>
<circle cx="9300" cy="3050" r="499.5" fill="#99EC4E" stroke="#99EC4E"/>
<circle cx="9300" cy="2550" r="499.5" fill="#99EC4E" stroke="#99EC4E"/>
<circle cx="9300" cy="500" r="499.5" fill="#99EC4E" stroke="#99EC4E"/>
<circle cx="7500.06" cy="4600" r="499.5" fill="#99EC4E" stroke="#99EC4E"/>
<rect x="4400.52" y="1000.53" width="999" height="4099" fill="#99EC4E" stroke="#99EC4E"/>
<circle cx="4900" cy="5100.04" r="499.5" fill="#99EC4E" stroke="#99EC4E"/>
<circle cx="500" cy="500" r="499.5" transform="matrix(-1 0 0 1 8000.06 2049.99)" fill="#99EC4E" stroke="#99EC4E"/>
<circle cx="500" cy="500" r="499.5" transform="matrix(1 0 0 -1 4400 3550.02)" fill="#99EC4E" stroke="#99EC4E"/>
<circle cx="500" cy="500" r="499.5" transform="matrix(1 -3.25428e-09 -3.25428e-09 -1 4400 1500)" fill="#99EC4E" stroke="#99EC4E"/>
<rect x="-0.396432" y="0.585527" width="2630.14" height="999" transform="matrix(-0.981959 0.189095 0.189095 0.981959 7385.19 12.22)" fill="#99EC4E" stroke="#99EC4E"/>
<rect x="-0.396432" y="0.585527" width="2630.14" height="999" transform="matrix(-0.981959 0.189095 0.189095 0.981959 7384.83 2063.1)" fill="#99EC4E" stroke="#99EC4E"/>
<rect x="-0.396432" y="0.585527" width="2630.14" height="999" transform="matrix(-0.981959 0.189095 0.189095 0.981959 7385.84 4112.09)" fill="#99EC4E" stroke="#99EC4E"/>
<circle cx="500" cy="500" r="499.5" transform="matrix(1 -3.25428e-09 -3.25428e-09 -1 7000.07 1000)" fill="#99EC4E" stroke="#99EC4E"/>
<rect x="2600.5" y="1000.5" width="999" height="4099" fill="#99EC4E" stroke="#99EC4E"/>
<circle cx="3100" cy="5100" r="499.5" fill="#99EC4E" stroke="#99EC4E"/>
<circle cx="3100" cy="3050" r="499.5" fill="#99EC4E" stroke="#99EC4E"/>
<circle cx="3100" cy="1000" r="499.5" fill="#99EC4E" stroke="#99EC4E"/>
<rect x="580.506" y="2056.71" width="2655.97" height="999" transform="rotate(10.9 580.506 2056.71)" fill="#99EC4E" stroke="#99EC4E"/>
<rect x="0.5" y="500.5" width="999" height="4099" fill="#99EC4E" stroke="#99EC4E"/>
<circle cx="500" cy="4600" r="499.5" fill="#99EC4E" stroke="#99EC4E"/>
<circle cx="500" cy="2550" r="499.5" fill="#99EC4E" stroke="#99EC4E"/>
<circle cx="500" cy="500" r="499.5" fill="#99EC4E" stroke="#99EC4E"/>
</svg>
