<svg width="17198" height="6002" viewBox="0 0 17198 6002" fill="none" xmlns="http://www.w3.org/2000/svg">
<path d="M14213 1303.3C16720.1 162.943 16964.4 1855.67 14213 2859" stroke="black" stroke-width="1000"/>
<path d="M14213 3359.3C16720.1 2218.94 16964.4 3911.67 14213 4915" stroke="black" stroke-width="1000"/>
<rect x="13300" y="1299" width="1200" height="3910" fill="#B5F064" stroke="black" stroke-width="200"/>
<path d="M16446 2278C17485 2803.29 17669.5 4495.73 14032 5889" stroke="black" stroke-width="200"/>
<circle cx="13900" cy="5301" r="600" fill="#B5F064" stroke="black" stroke-width="200"/>
<circle cx="13900" cy="3250" r="499.5" fill="#B5F064" stroke="#B5F064"/>
<circle cx="13900" cy="1201" r="600" fill="#B5F064" stroke="black" stroke-width="200"/>
<rect x="13400" y="1201" width="1000" height="4100" fill="#B5F064"/>
<path d="M13673 647.774C17564 -1100.5 17833 1937 15912.5 2777" stroke="black" stroke-width="200"/>
<path d="M13900 3251.9C17203.5 1749.92 17525.5 3979.42 13900 5300.92" stroke="#B5F064" stroke-width="1000"/>
<path d="M13900 1201.97C17203.5 -300 17525.5 1929.5 13900 3251" stroke="#B5F064" stroke-width="1000"/>
<rect x="9432.72" y="3520.49" width="1200" height="3151.01" transform="rotate(-45.5 9432.72 3520.49)" fill="#B5F064" stroke="black" stroke-width="200"/>
<circle cx="12100" cy="5301" r="600" fill="#B5F064" stroke="black" stroke-width="200"/>
<path d="M9479 500.009C13243 494.06 13243 3484.94 9479 3478.99" stroke="black" stroke-width="1000"/>
<path d="M9479 904.006C12668.3 899.725 12668.3 3052.27 9479 3047.99" stroke="black" stroke-width="1000"/>
<rect x="8900" y="804" width="1200" height="3898" fill="#B5F064" stroke="black" stroke-width="200"/>
<circle cx="9500" cy="4801" r="600" fill="#B5F064" stroke="black" stroke-width="200"/>
<circle cx="9500" cy="3251" r="499.5" fill="#B5F064" stroke="#B5F064"/>
<circle cx="9500" cy="2751" r="499.5" fill="#B5F064" stroke="#B5F064"/>
<circle cx="9500" cy="701" r="600" fill="#B5F064" stroke="black" stroke-width="200"/>
<path d="M9479 701.008C12973.7 695.916 12973.7 3256.08 9479 3250.99" stroke="#B5F064" stroke-width="1000"/>
<rect x="9000" y="701" width="1000" height="4100" fill="#B5F064"/>
<rect x="9477.39" y="3424.17" width="999.989" height="3166.02" transform="rotate(-45.5 9477.39 3424.17)" fill="#B5F064"/>
<circle cx="7700.06" cy="4801" r="600" fill="#B5F064" stroke="black" stroke-width="200"/>
<rect x="4500" y="1296" width="1200" height="3920" fill="#B5F064" stroke="black" stroke-width="200"/>
<circle cx="5100" cy="5301.04" r="600" fill="#B5F064" stroke="black" stroke-width="200"/>
<circle cx="500" cy="500" r="600" transform="matrix(-1 0 0 1 8200.06 2250.99)" fill="#B5F064" stroke="black" stroke-width="200"/>
<circle cx="500" cy="500" r="499.5" transform="matrix(1 0 0 -1 4600 3751.02)" fill="#B5F064" stroke="#B5F064"/>
<circle cx="500" cy="500" r="600" transform="matrix(1 -3.25428e-09 -3.25428e-09 -1 4600 1701)" fill="#B5F064" stroke="black" stroke-width="200"/>
<rect x="79.2863" y="-117.105" width="2452.25" height="1200" transform="matrix(-0.981959 0.189095 0.189095 0.981959 7577.08 232.287)" fill="#B5F064" stroke="black" stroke-width="200"/>
<rect x="79.2863" y="-117.105" width="2664.32" height="1200" transform="matrix(-0.981959 0.189095 0.189095 0.981959 7601.21 2278.45)" fill="#B5F064" stroke="black" stroke-width="200"/>
<rect x="79.2863" y="-117.105" width="2466.83" height="1200" transform="matrix(-0.981959 0.189095 0.189095 0.981959 7583.64 4331.02)" fill="#B5F064" stroke="black" stroke-width="200"/>
<circle cx="500" cy="500" r="600" transform="matrix(1 -3.25428e-09 -3.25428e-09 -1 7200.07 1201)" fill="#B5F064" stroke="black" stroke-width="200"/>
<rect width="2664.08" height="1000" transform="matrix(-0.981959 0.189095 0.189095 0.981959 7605.14 209.463)" fill="#B5F064"/>
<rect width="2664.89" height="1000" transform="matrix(-0.981959 0.189095 0.189095 0.981959 7618.87 2257.63)" fill="#B5F064"/>
<rect width="2666.65" height="1000" transform="matrix(-0.981959 0.189095 0.189095 0.981959 7600.65 4310.32)" fill="#B5F064"/>
<rect x="4600" y="1209" width="1000" height="4103" fill="#B5F064"/>
<rect x="2700" y="1296" width="1200" height="3900" fill="#B5F064" stroke="black" stroke-width="200"/>
<circle cx="3300" cy="5301" r="600" fill="#B5F064" stroke="black" stroke-width="200"/>
<circle cx="3300" cy="3251" r="499.5" fill="#B5F064" stroke="#B5F064"/>
<circle cx="3300" cy="1201" r="600" fill="#B5F064" stroke="black" stroke-width="200"/>
<rect x="700.823" y="2140.02" width="2856.97" height="1200" transform="rotate(10.9 700.823 2140.02)" fill="#B5F064" stroke="black" stroke-width="200"/>
<rect x="100" y="796" width="1200" height="3910" fill="#B5F064" stroke="black" stroke-width="200"/>
<circle cx="700" cy="4801" r="600" fill="#B5F064" stroke="black" stroke-width="200"/>
<circle cx="700" cy="2751" r="499.5" fill="#B5F064" stroke="#B5F064"/>
<circle cx="700" cy="701" r="600" fill="#B5F064" stroke="black" stroke-width="200"/>
<rect x="200" y="698" width="1000" height="4103" fill="#B5F064"/>
<rect x="780.11" y="2257.12" width="2656.97" height="1000" transform="rotate(10.9 780.11 2257.12)" fill="#B5F064"/>
<rect x="2800" y="1201" width="1000" height="4100" fill="#B5F064"/>
</svg>
